<svg xmlns="http://www.w3.org/2000/svg" width="48" height="48" fill="none"><path fill="#000" fill-rule="evenodd" d="M24 48C10.745 48 0 37.255 0 24S10.745 0 24 0s24 10.745 24 24-10.745 24-24 24m.334-25.347c1.965 0 11.52-5.373 11.52-5.373l.016-.96c0-1.06-.86-1.92-1.923-1.92H14.722c-1.062 0-1.922.86-1.922 1.92v.855s9.66 5.478 11.534 5.478M12.815 20.16s9.644 5.133 11.52 5.133c2.055 0 11.52-5.133 11.52-5.133l.015 11.52c0 1.06-.86 1.92-1.923 1.92H14.722c-1.06 0-1.922-.86-1.922-1.92z" clip-rule="evenodd"/></svg>