<svg width="16" height="16" fill="none" xmlns="http://www.w3.org/2000/svg"><rect width="16" height="16" rx="4" fill="#2C2C2C"/><path d="M7.39 5.1c.24 0 .36.123.36.37L8.04 12h-.88l-.25-6.17H6.7l-1.54 5.09c-.053.2-.18.3-.38.3h-.79c-.207 0-.34-.1-.4-.3L2.05 5.83h-.2L1.61 12H.73L1 5.47c.013-.247.137-.37.37-.37h1c.187 0 .31.1.37.3l1.29 4.21c.053.153.097.307.13.46.04.153.083.31.13.47h.18c.047-.16.09-.317.13-.47.04-.153.083-.313.13-.48L6.02 5.4c.053-.2.18-.3.38-.3h.99Zm6.96 0-2.01 2.86c-.06.087-.12.163-.18.23-.054.06-.12.13-.2.21v.02c.086.08.166.16.24.24.073.08.136.16.19.24l2.1 3.1h-.99l-2.45-3.61 2.34-3.29h.96Zm-3.84 0v2.16a5.166 5.166 0 0 1-.12 1.13c.033.187.06.373.08.56.026.187.04.367.04.54V12h-.87V5.1h.87Zm1.02 2.95v.71H10.2v-.71h1.33Z" fill="#fff"/></svg>