<svg width="25" height="25" fill="none" xmlns="http://www.w3.org/2000/svg"><path d="M8.362 20.13c0 .103-.116.186-.262.186-.167.016-.282-.067-.282-.186 0-.103.115-.186.262-.186.15-.016.282.067.282.186Zm-1.568-.233c-.035.104.066.223.217.254.131.051.282 0 .313-.104.03-.103-.066-.222-.217-.269-.131-.036-.277.016-.313.12Zm2.228-.087c-.146.036-.247.134-.232.253.015.103.146.17.298.134.146-.036.247-.134.232-.238-.016-.098-.152-.165-.298-.15ZM12.34 0C5.348 0 0 5.443 0 12.614c0 5.732 3.518 10.638 8.543 12.365.646.119.872-.29.872-.626 0-.32-.015-2.088-.015-3.174 0 0-3.528.776-4.269-1.54 0 0-.575-1.505-1.401-1.892 0 0-1.154-.812.08-.796 0 0 1.256.103 1.946 1.334 1.104 1.995 2.954 1.421 3.674 1.08.116-.827.444-1.401.807-1.742-2.818-.32-5.66-.74-5.66-5.713 0-1.421.383-2.135 1.19-3.044-.132-.336-.56-1.722.13-3.51C6.951 5.02 9.375 6.75 9.375 6.75c1.008-.29 2.092-.44 3.165-.44 1.074 0 2.158.15 3.166.44 0 0 2.424-1.737 3.477-1.395.691 1.793.263 3.174.131 3.51.807.915 1.3 1.628 1.3 3.045 0 4.988-2.968 5.386-5.785 5.712.463.408.856 1.184.856 2.398 0 1.742-.015 3.898-.015 4.322 0 .336.232.744.872.626C21.582 23.252 25 18.346 25 12.613 25 5.444 19.33 0 12.339 0Zm-7.44 17.83c-.065.051-.05.17.035.268.081.083.197.12.263.052.065-.052.05-.17-.036-.269-.08-.082-.196-.119-.262-.052Zm-.544-.42c-.035.068.015.15.116.202.08.052.181.037.216-.036.036-.067-.015-.15-.115-.201-.101-.031-.182-.016-.217.036Zm1.633 1.841c-.08.067-.05.222.065.32.116.12.263.135.328.052.066-.067.035-.222-.065-.32-.111-.12-.263-.135-.328-.052Zm-.575-.76c-.08.052-.08.186 0 .305.08.12.217.17.283.12.08-.068.08-.203 0-.321-.071-.12-.202-.171-.283-.104Z" fill="#1D3050"/></svg>