<svg width="25" height="25" fill="none" xmlns="http://www.w3.org/2000/svg"><path d="M12.5 0C5.595 0 0 5.595 0 12.5S5.595 25 12.5 25 25 19.405 25 12.5 19.405 0 12.5 0Zm5.796 8.503c-.186 1.976-1.003 6.774-1.416 8.987-.176.937-.52 1.25-.852 1.28-.726.066-1.275-.479-1.98-.942-1.1-.721-1.724-1.17-2.788-1.875-1.235-.812-.433-1.26.267-1.991.187-.192 3.382-3.1 3.443-3.362.01-.035.015-.156-.06-.222-.076-.066-.182-.04-.258-.025-.11.023-1.868 1.184-5.272 3.483-.497.342-.95.509-1.356.499-.448-.01-1.305-.252-1.945-.459-.782-.252-1.407-.388-1.351-.822.027-.225.338-.455.932-.69a642.198 642.198 0 0 1 7.289-3.14C16.42 7.782 17.142 7.53 17.61 7.52c.106 0 .332.025.484.146a.53.53 0 0 1 .176.338c.027.165.036.332.025.499Z" fill="#1D3050"/></svg>